<svg version="1.1" id="Icons" xmlns="http://www.w3.org/2000/svg" x="0" y="0" viewBox="0 0 48 48" style="enable-background:new 0 0 48 48" xml:space="preserve"><style>.Graphic_x0020_Style_x0020_11,.st0{opacity:.15;fill:#45413c}.st1{fill:#ffe500}.st2{fill:#ebcb00}.st3{fill:none;stroke:#45413c;stroke-linecap:round;stroke-linejoin:round;stroke-miterlimit:10}.st19{fill:#fff48c}.st36,.st92{stroke:#45413c;stroke-linecap:round;stroke-miterlimit:10}.st36{fill:#fff;stroke-linejoin:round}.st92{fill:#e5feff}.st92,.st94{stroke-linejoin:round}.st94,.st95{fill:#fff;stroke:#45413c;stroke-miterlimit:10}</style><g id="XMLID_14450_"><ellipse id="XMLID_14471_" class="st0" cx="12.5" cy="45.5" rx="9.5" ry="1.5"/><ellipse id="XMLID_14470_" class="st0" cx="37.5" cy="45.5" rx="9" ry="1.4"/><circle id="XMLID_14469_" class="st36" cx="41.2" cy="5.9" r="1"/><circle id="XMLID_14468_" class="st36" cx="3.3" cy="12.1" r=".9"/><g id="XMLID_14459_"><path id="XMLID_14467_" class="st3" d="M8.4 2.9v-.5"/><path id="XMLID_14466_" class="st3" d="m9.5 3.4.4-.4"/><path id="XMLID_14465_" class="st3" d="M10 4.5h.5"/><path id="XMLID_14464_" class="st3" d="m9.5 5.6.4.4"/><path id="XMLID_14463_" class="st3" d="M8.4 6.1v.5"/><path id="XMLID_14462_" class="st3" d="m7.3 5.6-.4.4"/><path id="XMLID_14461_" class="st3" d="M6.8 4.5h-.5"/><path id="XMLID_14460_" class="st3" d="M7.3 3.4 6.9 3"/></g><g id="XMLID_14456_"><path id="XMLID_14458_" class="st3" d="M33 3.7V2.3"/><path id="XMLID_14457_" class="st3" d="M32.3 3h1.4"/></g><g id="XMLID_14451_"><path id="XMLID_14455_" class="st94" d="M21.2 3.6c.1 0 .2 0 .2.1.1.1.1.1.1.2L21 7.2c0 .1-.1.2-.2.2s-.2-.1-.3-.2L19.4 4v-.2c0-.1.1-.1.2-.1l1.6-.1z"/><path id="XMLID_14454_" class="st94" d="M26.9 4.9c.1 0 .1.1.1.2s0 .2-.1.2l-2.4 2.3c-.1.1-.2.1-.3 0-.1-.1-.1-.2-.1-.3l1-3.2c0-.1.1-.1.2-.2h.2l1.4 1z"/><path id="XMLID_14453_" class="st94" d="M14.7 5.7c-.1 0-.1.1-.1.2s0 .2.1.2l2.4 2.3c.1.1.2.1.3 0 .1-.1.1-.2.1-.3l-1-3.2c0-.1-.1-.1-.2-.2h-.2l-1.4 1z"/><path id="XMLID_14452_" class="st94" d="M11 10.3v.2c0 .1.1.1.2.1l3.4.4c.1 0 .2-.1.3-.2 0-.1 0-.2-.1-.3L12 8.7c-.1 0-.1-.1-.2 0-.1 0-.1.1-.2.1l-.6 1.5z"/></g></g><path id="XMLID_14415_" class="st92" d="m8.1 23.9-.6 2.4-2.2-.5c-.6-.2-1.2.2-1.3.8l-.8 3.2c-.2.9.1 1.8.8 2.4l1.7 1.3-.7 3-2.8-2.1C.8 33.3.1 31.5.5 29.8l1.1-4.5c.4-1.5 1.9-2.4 3.4-2.1l3.1.7z"/><path id="XMLID_14414_" class="st1" d="M19.5 41.9c-.5-.7-.7-1.6-.5-2.4l3.6-14.7-13.9-3.4-3.6 14.7c-.2.8-.8 1.6-1.6 1.9l16 3.9z"/><path id="XMLID_14413_" class="st19" d="m11.7 40 4.1-16.8 6.8 1.7L19 39.5c-.2.8 0 1.7.5 2.4L11.7 40z"/><path id="XMLID_14412_" class="st3" d="M19.5 41.9c-.5-.7-.7-1.6-.5-2.4l3.6-14.7-13.9-3.4-3.6 14.7c-.2.8-.8 1.6-1.6 1.9l16 3.9z"/><circle id="XMLID_14411_" transform="rotate(-76.303 18.583 30.44)" class="st2" cx="18.6" cy="30.4" r=".8"/><circle id="XMLID_14410_" transform="rotate(-76.308 9.602 25.95)" class="st2" cx="9.6" cy="26" r=".6"/><path id="XMLID_14409_" class="Graphic_x0020_Style_x0020_11" d="M22.1 26.4h-.3c-.3-.1-.6-.2-.8-.4l-.5 1.9c-.1.4-.5.6-.9.5-.4-.1-.6-.5-.5-.9l.5-1.9c-.3 0-.6 0-.9-.1-.2 0-.4-.1-.6-.2l-.9 3.7c-.2.7-.9 1.2-1.6 1-.7-.2-1.2-.9-1-1.6l.8-3.5c-.7-.2-1.4-.6-1.9-1.1-.6.2-1.2.3-1.9.2-.7-.2-1.2-.5-1.6-1-.5.3-1 .4-1.6.2-.1 0-.2-.1-.3-.1l.4-1.7 13.9 3.4-.3 1.6z"/><path id="XMLID_14408_" class="st36" d="M7.3 19.6c.3-1.1 1.4-1.8 2.5-1.5.2 0 .3.1.5.2.7-1 1.9-1.4 3.1-1.2.2 0 .4.1.5.2.9-.9 2.3-1.3 3.6-1 1.3.3 2.3 1.3 2.7 2.5 0 0 0 0 0 0 1.2.3 2.1 1.3 2.2 2.5.2 0 .3 0 .5.1 1.1.3 1.8 1.4 1.5 2.5-.3 1.1-1.4 1.8-2.5 1.5-.3-.1-.6-.2-.8-.4l-.5 1.9c-.1.4-.5.6-.9.5-.4-.1-.6-.5-.5-.9l.5-1.9c-.3 0-.6 0-.9-.1-.2 0-.4-.1-.6-.2l-.9 3.5c-.2.7-.9 1.2-1.6 1-.7-.2-1.2-.9-1-1.6l.8-3.5c-.7-.2-1.4-.6-1.9-1.1-.6.2-1.2.3-1.9.2-.7-.2-1.2-.5-1.6-1-.5.3-1 .4-1.6.2-.8-.1-1.5-1.3-1.2-2.4z"/><circle id="XMLID_14407_" transform="rotate(-76.303 9.108 33.889)" class="st2" cx="9.1" cy="33.9" r=".8"/><circle id="XMLID_14406_" transform="rotate(-76.308 15.23 37.107)" class="st2" cx="15.2" cy="37.1" r=".6"/><circle id="XMLID_14405_" transform="rotate(-76.308 18.69 33.537)" class="st2" cx="18.7" cy="33.5" r=".6"/><circle id="XMLID_14404_" transform="rotate(-76.303 11.996 29.124)" class="st2" cx="12" cy="29.1" r=".6"/><g id="XMLID_14402_"><path id="XMLID_14403_" class="st95" d="M13.8 32.7c-.1.6.2 1.2.8 1.3.6.1 1.2-.2 1.3-.8.1-.4-.2-1.7-.4-2.3 0-.1-.1-.1-.2-.1s-.2 0-.2.1c-.3.4-1.2 1.4-1.3 1.8z"/></g><path id="XMLID_14401_" class="st92" d="M2.1 38.9c-.2.7.2 1.4.9 1.5l15.9 3.9c.7.2 1.3-.3 1.5-.9.2-.7-.2-1.4-.9-1.5L3.5 38c-.6-.2-1.3.3-1.4.9z"/><g><path id="XMLID_14400_" class="st92" d="m39.6 14.6.7 2.4 2.1-.6c.6-.2 1.2.2 1.4.8l.9 3.2c.3.9 0 1.8-.7 2.4L42.4 24l.9 2.9 2.6-2.2c1.4-1.1 1.9-3 1.4-4.7L46 15.6c-.4-1.5-2-2.3-3.5-1.9l-2.9.9z"/><path id="XMLID_14399_" class="st1" d="M29.1 33.2c.5-.7.6-1.6.4-2.4l-4.3-14.5 13.7-4.1 4.3 14.5c.2.8.9 1.5 1.7 1.8l-15.8 4.7z"/><path id="XMLID_14398_" class="st19" d="m36.8 30.9-4.9-16.6-6.7 2 4.3 14.5c.2.8.1 1.7-.4 2.4l7.7-2.3z"/><path id="XMLID_14397_" class="st3" d="M29.1 33.2c.5-.7.6-1.6.4-2.4l-4.3-14.5 13.7-4.1 4.3 14.5c.2.8.9 1.5 1.7 1.8l-15.8 4.7z"/><circle id="XMLID_14396_" transform="rotate(-16.57 29.417 21.687)" class="st2" cx="29.4" cy="21.7" r=".8"/><circle id="XMLID_14395_" transform="rotate(-16.57 38.159 16.75)" class="st2" cx="38.2" cy="16.8" r=".6"/><path id="XMLID_14394_" class="Graphic_x0020_Style_x0020_11" d="M25.7 17.9c.1 0 .2 0 .3-.1.3-.1.6-.3.8-.5l.6 1.9c.1.4.5.6.9.5.4-.1.6-.5.5-.9l-.6-1.8c.3 0 .6 0 .9-.1.2-.1.4-.1.6-.2l1 3.5c.2.7 1 1.1 1.7.9.7-.2 1.1-1 .9-1.7l-1-3.4c.7-.2 1.4-.6 1.8-1.2.6.2 1.2.3 1.9.1.6-.2 1.2-.6 1.5-1.1.5.3 1 .3 1.6.2.1 0 .2-.1.2-.1l-.5-1.6-13.7 4.1.6 1.5z"/><path id="XMLID_14393_" class="st36" d="M40.2 10.3c-.3-1.1-1.5-1.7-2.6-1.4-.2.1-.3.1-.5.2-.7-.9-2-1.4-3.2-1-.2.1-.4.1-.5.2-1-.9-2.3-1.2-3.7-.8-1.3.4-2.3 1.4-2.6 2.6 0 0 0 0 0 0-1.2.4-2 1.4-2.1 2.6-.2 0-.3 0-.5.1-1.1.3-1.7 1.5-1.4 2.6.3 1.1 1.5 1.7 2.6 1.4.3-.1.6-.3.8-.5l.6 1.9c.1.4.5.6.9.5.4-.1.6-.5.5-.9l-.6-1.8c.3 0 .6 0 .9-.1.2-.1.4-.1.6-.2l1 3.5c.2.7 1 1.1 1.7.9.7-.2 1.1-1 .9-1.7L32 15c.7-.2 1.4-.6 1.8-1.2.6.2 1.2.3 1.9.1.6-.2 1.2-.6 1.5-1.1.5.3 1 .3 1.6.2 1.1-.4 1.7-1.6 1.4-2.7z"/><circle id="XMLID_14392_" transform="rotate(-16.57 39.053 24.655)" class="st2" cx="39.1" cy="24.7" r=".8"/><circle id="XMLID_14391_" transform="rotate(-16.57 33.097 28.176)" class="st2" cx="33.1" cy="28.2" r=".6"/><circle id="XMLID_14390_" transform="rotate(-16.57 29.462 24.784)" class="st2" cx="29.5" cy="24.8" r=".6"/><circle id="XMLID_14389_" transform="rotate(-16.57 35.93 20.041)" class="st2" cx="35.9" cy="20" r=".6"/><g id="XMLID_14387_"><path id="XMLID_14388_" class="st95" d="M34.3 23.7c.2.6-.2 1.2-.7 1.4-.6.2-1.2-.2-1.4-.7-.1-.4.1-1.7.3-2.3 0-.1.1-.1.1-.2h.2c.4.5 1.3 1.4 1.5 1.8z"/></g><path id="XMLID_14386_" class="st92" d="M46.3 29.3c.2.7-.2 1.4-.8 1.6l-15.7 4.7c-.6.2-1.3-.2-1.5-.9-.2-.7.2-1.4.8-1.6l15.7-4.7c.7-.1 1.3.3 1.5.9z"/></g></svg>